<svg width="50" height="50" viewBox="0 0 50 50" fill="none" xmlns="http://www.w3.org/2000/svg">
<g clip-path="url(#clip0_697_21)">
<path d="M19.1459 13.2292C14.8959 18 11.9792 24.8542 11.7084 25.5L4.16669 22.2709L12.6042 13.8334C13.5834 12.8542 15 12.4167 16.375 12.6875L19.1459 13.2292ZM23.2709 35.4167C23.2709 35.4167 31.0625 32.1875 35.5417 27.7084C46.7917 16.4584 44.9167 7.6667 44.3125 5.68753C42.3334 5.06253 33.5417 3.20836 22.2917 14.4584C17.8125 18.9375 14.5834 26.7292 14.5834 26.7292L23.2709 35.4167ZM36.7709 30.8542C32 35.1042 25.1459 38.0209 24.5 38.2917L27.7292 45.8334L36.1667 37.3959C37.1459 36.4167 37.5834 35 37.3125 33.625L36.7709 30.8542ZM18.75 37.5C18.75 39.2292 18.0417 40.7917 16.9167 41.9167C14.4584 44.375 4.16669 45.8334 4.16669 45.8334C4.16669 45.8334 5.62502 35.5417 8.08335 33.0834C9.20835 31.9584 10.7709 31.25 12.5 31.25C15.9584 31.25 18.75 34.0417 18.75 37.5ZM27.0834 18.75C27.0834 16.4584 28.9584 14.5834 31.25 14.5834C33.5417 14.5834 35.4167 16.4584 35.4167 18.75C35.4167 21.0417 33.5417 22.9167 31.25 22.9167C28.9584 22.9167 27.0834 21.0417 27.0834 18.75Z" fill="#87643d"/>
</g>
<defs>
<clipPath id="clip0_697_21">
<rect width="50" height="50" fill="white"/>
</clipPath>
</defs>
</svg>
