<svg width="50" height="50" viewBox="0 0 50 50" fill="none" xmlns="http://www.w3.org/2000/svg">
<g clip-path="url(#clip0_697_27)">
<path d="M12.5 31.25C10.7709 31.25 9.20835 31.9583 8.08335 33.0833C5.62502 35.5417 4.16669 45.8333 4.16669 45.8333C4.16669 45.8333 14.4584 44.375 16.9167 41.9167C18.0417 40.7917 18.75 39.2292 18.75 37.5C18.75 34.0417 15.9584 31.25 12.5 31.25ZM13.9792 38.9792C13.3959 39.5625 9.45835 40.5625 9.45835 40.5625C9.45835 40.5625 10.4375 36.6458 11.0417 36.0417C11.3959 35.6458 11.9167 35.4167 12.5 35.4167C13.6459 35.4167 14.5834 36.3542 14.5834 37.5C14.5834 38.0833 14.3542 38.6042 13.9792 38.9792ZM36.2917 28.4375C49.5417 15.1875 45.125 4.875 45.125 4.875C45.125 4.875 34.8125 0.458335 21.5625 13.7083L16.375 12.6667C15.0209 12.3958 13.6042 12.8333 12.6042 13.8125L4.16669 22.2708L14.5834 26.7292L23.2709 35.4167L27.7292 45.8333L36.1667 37.3958C37.1459 36.4167 37.5834 35 37.3125 33.625L36.2917 28.4375ZM15.4375 22.5625L11.4584 20.8542L15.5625 16.75L18.5625 17.3542C17.375 19.0833 16.3125 20.8958 15.4375 22.5625ZM29.1459 38.5417L27.4375 34.5625C29.1042 33.6875 30.9167 32.625 32.625 31.4375L33.2292 34.4375L29.1459 38.5417ZM33.3334 25.5C30.5834 28.25 26.2917 30.5 24.9167 31.1875L18.8125 25.0833C19.4792 23.7292 21.7292 19.4375 24.5 16.6667C34.25 6.91667 41.6459 8.35417 41.6459 8.35417C41.6459 8.35417 43.0834 15.75 33.3334 25.5ZM31.25 22.9167C33.5417 22.9167 35.4167 21.0417 35.4167 18.75C35.4167 16.4583 33.5417 14.5833 31.25 14.5833C28.9584 14.5833 27.0834 16.4583 27.0834 18.75C27.0834 21.0417 28.9584 22.9167 31.25 22.9167Z" fill="black"/>
</g>
<defs>
<clipPath id="clip0_697_27">
<rect width="50" height="50" fill="white"/>
</clipPath>
</defs>
</svg>
