<svg width="50" height="50" viewBox="0 0 50 50" fill="none" xmlns="http://www.w3.org/2000/svg">
<g clip-path="url(#clip0_718_10)">
<path d="M43.75 12.5H6.25C3.95833 12.5 2.08333 14.375 2.08333 16.6667V33.3333C2.08333 35.625 3.95833 37.5 6.25 37.5H43.75C46.0417 37.5 47.9167 35.625 47.9167 33.3333V16.6667C47.9167 14.375 46.0417 12.5 43.75 12.5ZM43.75 33.3333H6.25V16.6667H43.75V33.3333ZM12.5 31.25H16.6667V27.0833H20.8333V22.9167H16.6667V18.75H12.5V22.9167H8.33333V27.0833H12.5V31.25Z" fill="black"/>
<path d="M30.2083 31.25C31.9342 31.25 33.3333 29.8509 33.3333 28.125C33.3333 26.3991 31.9342 25 30.2083 25C28.4824 25 27.0833 26.3991 27.0833 28.125C27.0833 29.8509 28.4824 31.25 30.2083 31.25Z" fill="black"/>
<path d="M38.5417 25C40.2676 25 41.6667 23.6009 41.6667 21.875C41.6667 20.1491 40.2676 18.75 38.5417 18.75C36.8158 18.75 35.4167 20.1491 35.4167 21.875C35.4167 23.6009 36.8158 25 38.5417 25Z" fill="black"/>
</g>
<defs>
<clipPath id="clip0_718_10">
<rect width="50" height="50" fill="white"/>
</clipPath>
</defs>
</svg>
