<svg width="50" height="50" viewBox="0 0 50 50" fill="none" xmlns="http://www.w3.org/2000/svg">
<g clip-path="url(#clip0_718_2)">
<path d="M43.75 12.5H6.25C3.95833 12.5 2.08333 14.375 2.08333 16.6667V33.3333C2.08333 35.625 3.95833 37.5 6.25 37.5H43.75C46.0417 37.5 47.9167 35.625 47.9167 33.3333V16.6667C47.9167 14.375 46.0417 12.5 43.75 12.5ZM22.9167 27.0833H16.6667V33.3333H12.5V27.0833H6.25V22.9167H12.5V16.6667H16.6667V22.9167H22.9167V27.0833ZM32.2917 31.25C30.5625 31.25 29.1667 29.8542 29.1667 28.125C29.1667 26.3958 30.5625 25 32.2917 25C34.0208 25 35.4167 26.3958 35.4167 28.125C35.4167 29.8542 34.0208 31.25 32.2917 31.25ZM40.625 25C38.8958 25 37.5 23.6042 37.5 21.875C37.5 20.1458 38.8958 18.75 40.625 18.75C42.3542 18.75 43.75 20.1458 43.75 21.875C43.75 23.6042 42.3542 25 40.625 25Z" fill="#87643d"/>
</g>
<defs>
<clipPath id="clip0_718_2">
<rect width="50" height="50" fill="white"/>
</clipPath>
</defs>
</svg>
